<?xml version="1.0" standalone="no"?>
<!DOCTYPE svg PUBLIC "-//W3C//DTD SVG 20010904//EN"
 "http://www.w3.org/TR/2001/REC-SVG-20010904/DTD/svg10.dtd">
<svg version="1.0" xmlns="http://www.w3.org/2000/svg"
 width="300.000000pt" height="300.000000pt" viewBox="0 0 300.000000 300.000000"
 preserveAspectRatio="xMidYMid meet">
<metadata>
Created by potrace 1.11, written by Peter Selinger 2001-2013
</metadata>
<g transform="translate(0.000000,300.000000) scale(0.100000,-0.100000)"
fill="#000000" stroke="none">
<path d="M1305 2764 c-13 -14 -22 -33 -20 -43 2 -14 -4 -17 -33 -16 -21 0 -47
6 -59 13 -31 18 -60 15 -83 -8 -26 -26 -27 -84 -1 -102 18 -13 37 -55 32 -72
-1 -5 -3 -62 -5 -126 -2 -64 -6 -121 -9 -127 -4 -6 -10 -42 -13 -79 -6 -69
-13 -90 -21 -66 -3 6 -10 12 -18 12 -7 0 -37 27 -68 59 -30 33 -65 61 -78 63
-13 2 -26 6 -29 9 -3 3 -34 25 -70 50 -74 51 -126 61 -154 30 -13 -14 -14 -24
-7 -44 7 -17 7 -28 1 -32 -22 -14 27 -125 55 -125 6 0 21 -13 35 -30 14 -16
29 -30 34 -30 5 0 19 -11 32 -25 13 -14 26 -25 29 -25 10 0 34 -27 29 -32 -18
-19 -9 -50 24 -84 31 -32 33 -35 10 -21 -16 10 -28 14 -28 11 0 -4 -8 0 -17 8
-20 16 -79 16 -96 -1 -6 -6 -11 -29 -12 -51 -2 -38 -30 -108 -50 -122 -6 -4
-18 9 -29 30 -22 42 -38 57 -85 78 -63 28 -97 27 -134 -6 -19 -16 -34 -35 -35
-42 -1 -7 -3 -31 -6 -53 -5 -41 8 -98 28 -122 6 -8 21 -25 34 -38 l22 -24 -42
-11 c-84 -22 -149 -54 -164 -82 -8 -16 -18 -28 -23 -28 -12 0 -52 -82 -57
-117 -18 -123 -14 -140 51 -178 82 -47 133 -57 235 -42 24 3 161 89 167 104 3
9 11 2 22 -19 16 -32 16 -33 -9 -49 -59 -38 -98 -104 -94 -159 2 -34 17 -96
27 -108 5 -6 7 -13 3 -13 -13 -3 -22 -6 -50 -18 -17 -6 -57 -13 -91 -15 -41
-3 -79 -13 -113 -30 -60 -30 -62 -31 -62 -12 0 25 -47 67 -77 70 -52 6 -92
-28 -93 -80 0 -36 47 -106 94 -138 17 -12 14 -15 -35 -40 -97 -51 -162 -107
-183 -159 -27 -64 8 -164 64 -187 14 -5 90 -9 170 -8 165 2 201 12 269 78 43
42 56 43 125 15 20 -8 36 -12 36 -9 0 4 6 2 13 -4 13 -11 158 -50 221 -59 23
-3 82 -6 131 -6 71 0 98 4 130 20 54 28 92 71 100 113 3 19 11 45 17 57 10 21
11 21 47 5 20 -9 38 -21 40 -26 2 -5 18 -25 35 -45 19 -22 32 -46 31 -61 -3
-57 50 -73 90 -27 11 13 32 24 45 25 21 1 60 6 81 11 3 0 19 13 35 27 26 25
29 26 39 9 36 -60 77 -91 139 -103 49 -10 205 -4 260 9 28 7 53 12 56 12 3 0
16 4 30 9 14 5 32 11 40 13 8 2 44 13 80 25 100 34 102 34 137 -5 18 -19 35
-35 38 -35 3 0 20 -10 36 -22 27 -21 44 -23 152 -25 67 -1 137 -3 155 -4 76
-3 131 50 137 132 3 42 -1 58 -22 90 -24 36 -122 119 -141 119 -5 0 -21 9 -34
20 -14 10 -28 17 -30 14 -3 -3 -8 2 -11 10 -4 9 2 16 17 20 20 5 76 77 92 119
7 20 -31 84 -54 91 -32 9 -60 1 -91 -27 -17 -15 -31 -34 -31 -42 0 -19 -8 -19
-45 3 -39 24 -114 44 -151 42 -16 -1 -32 -1 -36 0 -5 1 -12 3 -17 4 -5 0 -13
4 -17 9 -4 4 -16 7 -26 7 -19 0 -19 11 0 75 23 82 -3 153 -75 203 -26 17 -42
32 -36 32 6 0 14 14 18 30 l7 31 31 -31 c17 -16 35 -30 40 -30 4 0 23 -11 42
-25 34 -27 66 -35 148 -39 61 -3 181 52 201 93 17 34 11 129 -12 184 -7 16
-12 32 -12 36 0 4 -11 14 -25 21 -13 7 -23 16 -20 19 9 16 -35 51 -92 75 -35
14 -66 25 -70 24 -5 -1 -18 2 -31 6 l-23 8 24 21 c81 71 88 213 14 265 -22 14
-41 20 -57 16 -14 -3 -34 -7 -45 -8 -11 -2 -23 -4 -27 -5 -19 -3 -88 -75 -88
-92 0 -21 -12 -31 -25 -21 -6 4 -20 29 -33 55 -17 38 -20 52 -11 68 8 16 7 26
-5 43 -18 28 -67 28 -126 -2 l-40 -19 30 34 c23 26 29 41 25 62 -5 30 11 49
92 106 24 17 43 35 43 41 0 6 12 17 26 24 36 20 68 84 54 110 -8 14 -8 26 0
40 8 15 6 24 -9 39 -33 33 -89 21 -168 -35 -37 -26 -76 -49 -86 -49 -11 -1
-42 -26 -71 -56 -43 -46 -96 -89 -109 -89 -2 0 -3 42 -3 94 1 65 -3 98 -13
110 -10 12 -15 51 -16 129 -3 108 -2 113 23 139 65 70 -21 175 -88 108 -10
-10 -22 -15 -25 -10 -3 5 -18 7 -34 5 -25 -3 -28 0 -28 21 0 56 -70 84 -121
48 -17 -11 -22 -25 -22 -57 l-1 -42 -14 32 c-19 45 -46 57 -90 39 -28 -12 -35
-12 -35 -2 0 22 -35 46 -69 46 -21 0 -40 -8 -56 -26z m-250 -1190 c15 -20 25
-36 24 -38 -2 -1 -21 -11 -41 -21 -21 -11 -38 -22 -38 -25 0 -4 -6 -14 -13
-24 -11 -15 -16 -16 -28 -5 -31 30 -133 69 -179 69 -42 0 -55 25 -50 90 2 24
2 24 12 -5 32 -88 153 -88 200 1 l22 42 32 -25 c18 -13 45 -40 59 -59z m1002
46 c13 -36 67 -70 110 -70 36 0 93 42 93 68 0 14 2 14 9 3 10 -16 5 -60 -10
-77 -5 -6 -30 -14 -55 -17 -24 -2 -73 -19 -108 -36 -35 -17 -67 -31 -70 -31
-4 0 -18 13 -32 29 -13 16 -36 32 -50 35 -25 7 -26 7 -9 34 20 31 85 91 100
92 6 0 16 -13 22 -30z m-512 -990 c-28 -12 -37 -12 -30 0 3 6 16 10 28 9 21 0
21 -1 2 -9z m129 0 c7 0 13 -6 13 -14 0 -13 -4 -13 -29 0 -30 15 -39 30 -12
20 9 -3 21 -6 28 -6z"/>
</g>
</svg>
